<?xml version="1.0" standalone="no"?>
<!DOCTYPE svg PUBLIC "-//W3C//DTD SVG 20010904//EN"
 "http://www.w3.org/TR/2001/REC-SVG-20010904/DTD/svg10.dtd">
<svg version="1.0" xmlns="http://www.w3.org/2000/svg"
 width="40.000000pt" height="43.000000pt" viewBox="0 0 40.000000 43.000000"
 preserveAspectRatio="xMidYMid meet">

<g transform="translate(0.000000,43.000000) scale(0.100000,-0.100000)"
fill="#000000" stroke="none">
<path d="M137 370 c-12 -9 -30 -20 -40 -23 -10 -4 -27 -27 -38 -53 l-21 -46
28 -39 c17 -25 34 -39 49 -39 43 0 84 -21 94 -48 8 -24 10 -25 10 -5 2 38 -28
57 -99 65 -32 4 -37 31 -10 58 24 24 50 20 93 -16 37 -31 87 -32 113 -2 l19
22 -27 -17 c-47 -29 -67 -22 -166 63 -13 11 -33 20 -44 20 -17 0 -18 3 -8 15
23 28 58 17 104 -30 42 -42 78 -57 90 -36 3 5 15 7 26 4 24 -6 50 13 50 36 0
9 -18 33 -40 53 -37 34 -44 37 -100 36 -41 -1 -68 -6 -83 -18z m73 -10 c22
-22 24 -29 11 -48 -6 -10 -16 -6 -40 19 -25 24 -29 34 -19 40 19 13 26 11 48
-11z m81 -1 c27 -27 22 -70 -10 -86 -35 -17 -65 0 -50 28 6 12 8 31 5 43 -10
41 21 49 55 15z m53 -44 c8 -21 -3 -45 -21 -45 -10 0 -13 6 -9 16 3 9 6 22 6
30 0 19 16 18 24 -1z m-219 -29 c18 -13 18 -14 -3 -20 -12 -4 -27 -16 -33 -27
-5 -11 -14 -17 -20 -14 -15 10 -10 53 9 64 22 14 25 13 47 -3z"/>
</g>
</svg>
